<svg width="220" height="36" viewBox="0 0 220 36" fill="none" xmlns="http://www.w3.org/2000/svg">
<mask id="mask0_1880_2" style="mask-type:luminance" maskUnits="userSpaceOnUse" x="0" y="0" width="36" height="36">
<path d="M36 0H0V36H36V0Z" fill="white"/>
</mask>
<g mask="url(#mask0_1880_2)">
<path d="M17.9986 5.53472L35.5997 0.349121L30.464 18.0001L35.5997 35.6012L17.9986 30.4655L0.347656 35.6012L5.53325 18.0001L0.347656 0.349121L17.9986 5.53472Z" fill="#00BBD1"/>
</g>
<path d="M174.107 33C172.602 33 171.235 32.7582 170.007 32.2745C168.78 31.782 167.805 31.0741 167.083 30.1508C166.361 29.2186 166 28.093 166 26.7739C166 25.6131 166.268 24.6721 166.805 23.951C167.341 23.2211 168.058 22.6495 168.955 22.2362C169.853 21.8229 170.843 21.5151 171.926 21.3128C173.019 21.1018 174.118 20.9347 175.221 20.8116C176.666 20.6533 177.836 20.5345 178.734 20.4554C179.641 20.3675 180.302 20.2224 180.714 20.0201C181.137 19.8178 181.349 19.4661 181.349 18.9648V18.8593C181.349 17.5578 180.931 16.5465 180.095 15.8254C179.27 15.1043 178.017 14.7437 176.336 14.7437C174.592 14.7437 173.226 15.0691 172.235 15.7198C171.245 16.3706 170.549 17.0653 170.147 17.804L166.681 16.7487C167.3 15.5176 168.125 14.559 169.156 13.8731C170.198 13.1784 171.333 12.6947 172.56 12.4221C173.798 12.1407 175.015 12 176.212 12C176.975 12 177.852 12.0791 178.842 12.2374C179.843 12.3869 180.807 12.6991 181.735 13.174C182.674 13.6489 183.453 14.3656 184.072 15.3241C184.691 16.2827 185 17.5666 185 19.1759V32.5251H181.349V29.7814H181.163C180.915 30.2211 180.503 30.6916 179.925 31.1928C179.347 31.6941 178.579 32.1206 177.62 32.4724C176.66 32.8241 175.49 33 174.107 33ZM174.664 30.2035C176.109 30.2035 177.326 29.9617 178.316 29.478C179.317 28.9943 180.069 28.37 180.575 27.6049C181.091 26.8398 181.349 26.0352 181.349 25.191V22.3417C181.194 22.5 180.853 22.6451 180.327 22.777C179.812 22.9001 179.213 23.01 178.533 23.1068C177.862 23.1947 177.207 23.2739 176.568 23.3442C175.938 23.4058 175.428 23.4585 175.036 23.5025C174.087 23.608 173.2 23.7795 172.375 24.017C171.56 24.2456 170.9 24.593 170.394 25.059C169.899 25.5163 169.651 26.1407 169.651 26.9322C169.651 28.0138 170.121 28.8317 171.059 29.3857C172.008 29.9309 173.21 30.2035 174.664 30.2035Z" fill="white"/>
<path d="M151 33V12.3231H154.562V15.4462H154.812C155.25 14.4231 156.042 13.5929 157.188 12.9558C158.333 12.3186 159.625 12 161.063 12C161.333 12 161.672 12.0045 162.078 12.0135C162.484 12.0224 162.792 12.0359 163 12.0538V15.2846C162.875 15.2577 162.589 15.2173 162.141 15.1635C161.703 15.1006 161.24 15.0692 160.75 15.0692C159.583 15.0692 158.542 15.2801 157.625 15.7019C156.719 16.1147 156 16.6891 155.469 17.425C154.948 18.1519 154.688 18.9821 154.688 19.9154V33H151Z" fill="white"/>
<path d="M135 33C132.808 33 130.886 32.5636 129.231 31.6908C127.588 30.818 126.302 29.597 125.375 28.0277C124.458 26.4584 124 24.6247 124 22.5264C124 20.4106 124.458 18.5636 125.375 16.9855C126.302 15.4074 127.588 14.182 129.231 13.3092C130.886 12.4364 132.808 12 135 12C137.192 12 139.109 12.4364 140.753 13.3092C142.407 14.182 143.693 15.4074 144.609 16.9855C145.536 18.5636 146 20.4106 146 22.5264C146 24.6247 145.536 26.4584 144.609 28.0277C143.693 29.597 142.407 30.818 140.753 31.6908C139.109 32.5636 137.192 33 135 33ZM135 30.1965C136.665 30.1965 138.034 29.8394 139.109 29.1253C140.184 28.4112 140.979 27.4723 141.496 26.3086C142.012 25.1448 142.27 23.8841 142.27 22.5264C142.27 21.1688 142.012 19.9037 141.496 18.7311C140.979 17.5586 140.184 16.6108 139.109 15.8879C138.034 15.165 136.665 14.8035 135 14.8035C133.335 14.8035 131.966 15.165 130.891 15.8879C129.816 16.6108 129.021 17.5586 128.504 18.7311C127.988 19.9037 127.73 21.1688 127.73 22.5264C127.73 23.8841 127.988 25.1448 128.504 26.3086C129.021 27.4723 129.816 28.4112 130.891 29.1253C131.966 29.8394 133.335 30.1965 135 30.1965Z" fill="white"/>
<path d="M105.037 12L110.5 20.5859L115.963 12H120L112.638 22.5L120 33H115.963L110.5 24.8516L105.037 33H101L108.244 22.5L101 12H105.037Z" fill="#00BBD1"/>
<path d="M87.5917 33C85.4024 33 83.5138 32.568 81.926 31.704C80.3481 30.8312 79.1302 29.6146 78.2722 28.0542C77.4241 26.4849 77 24.66 77 22.5793C77 20.4987 77.4241 18.665 78.2722 17.0781C79.1302 15.4824 80.3235 14.2393 81.8521 13.3489C83.3905 12.4496 85.1854 12 87.2367 12C88.4201 12 89.5888 12.1763 90.7426 12.529C91.8965 12.8816 92.9467 13.4547 93.8935 14.2481C94.8402 15.0327 95.5947 16.073 96.1568 17.369C96.7189 18.665 97 20.2607 97 22.1562V23.4786H79.4852V20.7809H93.4497C93.4497 19.6348 93.1933 18.6121 92.6805 17.7128C92.1775 16.8136 91.4576 16.1039 90.5207 15.5838C89.5937 15.0636 88.499 14.8035 87.2367 14.8035C85.8462 14.8035 84.643 15.1121 83.6272 15.7292C82.6213 16.3375 81.8471 17.131 81.3047 18.1096C80.7623 19.0882 80.4911 20.1373 80.4911 21.2569V23.0554C80.4911 24.5894 80.787 25.8898 81.3787 26.9565C81.9803 28.0145 82.8136 28.8212 83.8787 29.3766C84.9438 29.9232 86.1815 30.1965 87.5917 30.1965C88.5089 30.1965 89.3373 30.0819 90.0769 29.8526C90.8264 29.6146 91.4724 29.262 92.0148 28.7947C92.5572 28.3186 92.9763 27.728 93.2722 27.0227L96.645 27.869C96.2899 28.8917 95.6933 29.7909 94.855 30.5668C94.0168 31.3338 92.9813 31.9333 91.7485 32.3652C90.5158 32.7884 89.1302 33 87.5917 33Z" fill="white"/>
<path d="M71 5V33H67.3054L50.1256 11.0156H49.8177V33H46V5H49.6946L66.936 27.0391H67.2438V5H71Z" fill="white"/>
</svg>
